<svg width="17" height="16" viewBox="0 0 17 16" fill="none" xmlns="http://www.w3.org/2000/svg">
<path fill-rule="evenodd" clip-rule="evenodd" d="M2.41666 7.99992C2.41666 7.7698 2.6032 7.58325 2.83332 7.58325H13.8333C14.0634 7.58325 14.25 7.7698 14.25 7.99992C14.25 8.23004 14.0634 8.41659 13.8333 8.41659H2.83332C2.6032 8.41659 2.41666 8.23004 2.41666 7.99992Z" fill="#182840"/>
<path fill-rule="evenodd" clip-rule="evenodd" d="M9.0387 3.20529C9.20141 3.04257 9.46523 3.04257 9.62795 3.20529L14.128 7.70529C14.2907 7.86801 14.2907 8.13183 14.128 8.29455L9.62795 12.7945C9.46523 12.9573 9.20141 12.9573 9.0387 12.7945C8.87598 12.6318 8.87598 12.368 9.0387 12.2053L13.2441 7.99992L9.0387 3.79455C8.87598 3.63183 8.87598 3.36801 9.0387 3.20529Z" fill="#182840"/>
</svg>
